<svg xmlns="http://www.w3.org/2000/svg" id="Layer_2" data-name="Layer 2" viewBox="0 0 180.93 78.05"><defs><style>.cls-2{fill:#ed1c24}</style></defs><g id="Layer_1-2" data-name="Layer 1"><path d="M155.08.37c.11.19.15.32.24.4 1.19 1.08 1.45 2.4 1.03 3.86-.25.85-.83 1.39-1.79 1.52-1.71.24-3.41.51-5.11.78-1.75.27-3.5.56-5.25.83-2.14.33-4.28.65-6.42.98-1.67.26-3.34.53-5.01.79-1.3.2-2.61.37-3.91.57-1.54.23-3.07.48-4.6.71-2.06.31-4.13.61-6.19.91-2.17.32-4.34.64-6.51.97l-7.07 1.05c-2.82.42-5.65.85-8.47 1.27-2.22.33-4.44.66-6.65 1-2.32.35-4.64.71-6.97 1.07-1.78.27-3.57.55-5.35.81-2.26.34-4.53.67-6.79 1.02-2.25.35-4.49.71-6.74 1.06l-5.9.93c-2.69.44-5.39.89-8.08 1.33-2.05.34-4.11.68-6.17 1.02-1.67.28-3.34.56-5 .84-2.13.36-4.26.71-6.39 1.08-2.05.35-4.11.72-6.16 1.06-1.64.28-3.28.55-4.91.82-2.21.37-4.42.74-6.63 1.1-1.89.31-3.78.6-5.67.92-.39.07-.78.21-1.15.36-.31.13-.49.4-.6.72-.2.59-.19 1.19-.14 1.8.07.96.18 1.92.26 2.89.04.41.06.45.51.47 1.15.06 1.93.66 2.46 1.59.47.83.54 1.73.4 2.64-.09.64-.31 1.23-.69 1.77s-.85.97-1.51 1.17c-.24.07-.31.19-.28.43.18 1.45.36 2.91.53 4.36.2 1.69.38 3.39.58 5.09l.36 3.1c.21 1.77.43 3.54.63 5.31.15 1.35.29 2.7.43 4.06.07.62.17 1.23.21 1.84.08 1.16-.07 2.27-.87 3.21-.93 1.09-2.42 1.15-3.49.19-.41-.37-.65-.78-.74-1.32-.27-1.69-.62-3.36-.9-5.05-.15-.94-.23-1.89-.34-2.84-.21-1.83-.43-3.66-.63-5.5-.21-1.88-.4-3.76-.62-5.64-.27-2.4-.56-4.81-.83-7.21-.22-1.91-.42-3.82-.63-5.73-.16-1.38-.33-2.76-.48-4.15-.14-1.29-.26-2.59-.41-3.88-.08-.68-.12-1.35 0-2.03.21-1.08.79-1.87 1.87-2.27.45-.17.93-.29 1.4-.36 2.31-.38 4.62-.73 6.92-1.1 2.59-.41 5.17-.84 7.76-1.25 2.57-.41 5.15-.79 7.72-1.2 2.59-.41 5.17-.83 7.76-1.24 2.4-.38 4.81-.76 7.21-1.13 1.81-.29 3.62-.58 5.44-.86l8.79-1.38c2.22-.35 4.43-.71 6.64-1.06 2.22-.35 4.44-.69 6.65-1.03 1.61-.25 3.22-.53 4.83-.78 1.63-.26 3.26-.5 4.88-.76 2.37-.37 4.74-.75 7.11-1.13l8.42-1.32L103 8.44c2.6-.41 5.2-.82 7.81-1.23 2.54-.4 5.08-.82 7.62-1.22 2.23-.35 4.46-.69 6.7-1.04 1.75-.28 3.5-.57 5.25-.84 1.47-.24 2.95-.46 4.42-.69l7.16-1.14c2.28-.36 4.56-.71 6.83-1.06 1.16-.18 2.32-.39 3.48-.56.74-.11 1.5-.18 2.24-.26.2-.02.41 0 .56 0" class="cls-2"/><path d="M62.04 41.61c-.28-1.85-.96-3.53-2.2-4.98-2.39-2.78-6-3.65-9.48-2.28-1.91.75-3.44 2.01-4.6 3.63-1.98 2.76-2.73 5.82-2.16 9.14.34 1.97 1.18 3.73 2.65 5.16 1.98 1.92 4.38 2.71 7.17 2.24 1.89-.32 3.52-1.19 4.89-2.48 2.56-2.4 3.77-5.36 3.88-8.91-.04-.42-.06-.98-.15-1.53m-6.64 6.73c-.53.68-1.2 1.21-2.07 1.42-1.2.29-2.19-.13-3.01-.97-.71-.74-1.12-1.63-1.34-2.6-.38-1.69-.25-3.33.46-4.92.44-.98 1.07-1.81 2.06-2.34 1.19-.65 2.49-.4 3.38.31.99.8 1.49 1.85 1.75 3.03.13.56.16 1.14.24 1.7-.06 1.61-.46 3.09-1.46 4.38m-27.49-16.6c-.14-.01-.18-.03-.23-.02-1.81.32-3.61.65-5.42.96-2.27.39-4.55.76-6.82 1.14-1.11.18-2.23.36-3.35.53-.33.05-.37.1-.35.4.03.48.06.97.07 1.45.03 1.13.04 2.26.07 3.4 0 .08.05.16.08.27.28-.07.54-.13.79-.19 1.52-.32 3.03-.64 4.55-.97.25-.05.32 0 .34.28l.27 3.43c.07.87.16 1.75.24 2.62l.42 4.56c.08.93.15 1.87.23 2.8.14 1.46.3 2.92.42 4.38.09.99.14 1.99.21 2.99.02.3.07.32.38.27 1.08-.19 2.16-.39 3.24-.57.71-.12 1.42-.23 2.14-.34.19-.03.34-.08.31-.31l-.3-2.52c-.08-.66-.15-1.32-.22-1.98-.09-.81-.16-1.62-.25-2.43l-.42-3.74c-.08-.77-.15-1.53-.23-2.3-.14-1.3-.3-2.61-.44-3.91-.12-1.05-.23-2.1-.35-3.15-.04-.35-.09-.71-.14-1.12.41-.04.76-.06 1.12-.11l3.4-.45c.31-.04.34-.08.33-.37-.04-1.16-.08-2.32-.11-3.48-.01-.49 0-.99 0-1.51m2.43 6.34c.06.4.11.76.16 1.12l1.32 9.29c.21 1.48.42 2.96.62 4.45.2 1.51.4 3.03.59 4.54.04.33.06.35.41.29 1.48-.26 2.96-.51 4.45-.75.39-.06.39-.07.34-.47-.12-1.03-.23-2.07-.34-3.11-.12-1.11-.22-2.22-.34-3.33-.14-1.32-.31-2.64-.12-3.97.14-.98.39-1.93.95-2.77.74-1.11 1.77-1.72 3.18-1.68.09 0 .17-.03.27-.04v-.97l-.03-4.49c0-.22-.09-.3-.3-.31-1.84-.11-3.28.52-4.24 2.07-.41.67-.7 1.38-.93 2.12-.02.08-.14.18-.21.19-.16 0-.18-.13-.18-.26.02-.54.05-1.08.06-1.62v-.93c-1.91.22-3.79.43-5.68.65m149.63 9.07c-.05.48-.06.97-.17 1.44-.24 1.07-.98 1.7-2.05 1.96-.63.16-1.29.24-1.94.35-2.14.34-4.27.67-6.41 1.01-1.42.23-2.84.47-4.27.7-2.2.35-4.4.68-6.6 1.03-2.01.32-4.02.65-6.03.97l-7.66 1.2c-2.01.32-4.02.64-6.04.96-2.2.35-4.4.69-6.59 1.04-2.52.4-5.04.82-7.56 1.22-1.47.23-2.94.45-4.41.69-1.62.26-3.24.54-4.87.79-2.57.41-5.14.8-7.71 1.2-1.59.25-3.18.52-4.78.78-1.25.2-2.51.39-3.76.59-1.45.23-2.9.46-4.36.7l-3.57.57c-1.11.18-2.23.36-3.34.53-1.59.25-3.19.49-4.78.74-1.56.25-3.12.51-4.69.75-1.25.2-2.51.41-3.76.6-1.13.18-2.26.35-3.39.53-1.53.24-3.06.49-4.59.74-1.61.26-3.22.51-4.83.76-1.33.2-2.66.4-3.99.62-1.08.17-2.16.37-3.24.54-1.55.25-3.1.48-4.64.73-1.1.17-2.2.35-3.3.52l-3.06.48c-1.16.19-2.32.38-3.48.56-1.52.24-3.03.46-4.55.71-1.58.25-3.15.52-4.73.78-1.79.29-3.59.56-5.39.85-1.54.25-3.09.51-4.63.77-.93.17-1.83.17-2.73-.18-2.03-.8-2.19-3.12-1.03-4.43.47-.53 1.05-.83 1.77-.95 2.85-.44 5.7-.89 8.56-1.34l7.21-1.11c1.84-.29 3.69-.59 5.53-.88 2.25-.35 4.5-.68 6.75-1.04 3.33-.52 6.66-1.06 9.99-1.58 1.67-.26 3.35-.51 5.03-.77 1.81-.28 3.62-.57 5.44-.86 2.25-.35 4.5-.69 6.74-1.05 1.63-.25 3.26-.51 4.88-.77 1.88-.29 3.75-.58 5.63-.88l7.86-1.23c2.39-.37 4.78-.74 7.16-1.12 1.47-.23 2.94-.47 4.41-.7 1.83-.28 3.66-.55 5.49-.84 1.67-.26 3.35-.54 5.02-.8 2.19-.34 4.37-.67 6.56-1.01 2.22-.34 4.43-.69 6.65-1.04 2.5-.39 4.99-.77 7.49-1.17 2.2-.35 4.4-.71 6.6-1.05 2.23-.35 4.47-.68 6.7-1.02 1.97-.3 3.94-.63 5.9-.93 1.92-.3 3.85-.58 5.77-.9 3.44-.57 6.9-1 10.3-1.73.44-.1.9-.16 1.34-.24.98-.18 1.47-.63 1.59-1.59.07-.57.08-1.15.02-1.72-.1-.93-.29-1.85-.44-2.78-.05-.28-.08-.57-.12-.85-.03-.24-.11-.31-.33-.25-.89.26-1.56-.09-2.06-.74-.75-.97-.93-2.07-.51-3.22.19-.53.55-.96 1.13-1.15.24-.08.35-.24.4-.46.16-.7.25-1.4.17-2.12-.21-1.91-.41-3.82-.62-5.73-.21-1.89-.43-3.79-.64-5.68-.24-2.15-.46-4.3-.69-6.45-.08-.74-.17-1.47-.26-2.21-.09-.73.19-1.24.82-1.47.54-.2.99-.08 1.16.42.01.04.03.09.06.12.12.11.23.3.36.3.23 0 .33-.21.37-.4.03-.16.02-.33 0-.49-.07-.4-.18-.8-.24-1.2-.18-1.1.68-1.89 1.77-1.99.75-.07 1.39.44 1.54 1.2.14.71.24 1.43.33 2.15.13.94.24 1.89.36 2.83.05.39.07.78.11 1.17l.21 2.25c.09.95.18 1.89.26 2.84.09.99.15 1.99.24 2.98.06.68.14 1.35.2 2.03.06.61.11 1.23.18 1.85.09.79.18 1.59.28 2.38l.36 2.88c.17 1.29.33 2.57.5 3.86l.81 6.06c.24 1.77.49 3.53.72 5.29.05.36.05.72.07 1.09h.03" class="cls-2"/><path d="M27.92 31.74c0 .52-.01 1.02 0 1.51.03 1.16.07 2.32.11 3.49.01.29-.02.33-.33.37-1.13.15-2.27.31-3.4.45-.35.05-.71.07-1.12.11.05.42.1.77.14 1.12.12 1.05.23 2.1.35 3.15.15 1.3.3 2.61.44 3.91.08.77.15 1.53.23 2.3l.42 3.74c.09.81.16 1.62.25 2.43.07.66.15 1.32.22 1.98l.3 2.52c.03.23-.12.27-.31.3-.71.1-1.43.21-2.14.34-1.08.18-2.16.38-3.24.57-.31.06-.36.03-.38-.27-.07-.99-.12-1.99-.21-2.98-.13-1.46-.29-2.92-.42-4.38-.09-.93-.15-1.87-.23-2.8-.13-1.52-.28-3.04-.42-4.56l-.24-2.62-.27-3.43c-.02-.28-.09-.33-.34-.28l-4.54.96c-.26.05-.51.12-.8.19-.03-.11-.08-.19-.08-.27-.03-1.13-.04-2.26-.07-3.4-.01-.48-.04-.97-.07-1.45-.02-.3.02-.35.35-.4 1.12-.17 2.23-.35 3.35-.53 2.28-.37 4.55-.75 6.82-1.14 1.81-.31 3.61-.64 5.42-.96.04 0 .09 0 .23.02m108.24-20.25c.03.12.07.24.08.35.2 1.57.39 3.15.58 4.73.19 1.59.37 3.18.57 4.77.21 1.68.43 3.35.64 5.03.23 1.81.45 3.63.67 5.44.18 1.53.34 3.06.53 4.59.14 1.11.3 2.21.45 3.32.05.36.03.38-.33.43-1.63.25-3.25.51-4.88.77-.12.02-.24.03-.38.04-1.15-9.55-2.29-19.08-3.43-28.65 1.83-.27 3.64-.54 5.5-.82M30.35 38.08c1.89-.22 3.77-.43 5.68-.65v.93l-.06 1.62c0 .13.01.27.18.26.07 0 .19-.11.21-.19.23-.74.51-1.46.93-2.12.96-1.55 2.41-2.18 4.24-2.07.21.01.3.09.3.31 0 1.5.02 2.99.03 4.49v.97c-.1.02-.19.04-.27.04-1.41-.04-2.44.57-3.18 1.68-.56.84-.81 1.79-.95 2.77-.19 1.33-.02 2.65.12 3.97.12 1.11.23 2.22.34 3.33.11 1.04.22 2.07.34 3.11.05.4.05.4-.34.47l-4.45.75c-.34.06-.36.04-.41-.29-.19-1.51-.39-3.03-.59-4.54-.2-1.48-.41-2.96-.62-4.45l-1.48-10.41m116.36-19.43c.8 6.58 1.6 13.09 2.4 19.66-.59.18-1.22.19-1.82.31-.6.11-1.2.22-1.8.32-.61.11-1.23.21-1.87.32-.02-.15-.04-.27-.06-.39-.2-1.99-.41-3.97-.62-5.95-.19-1.8-.37-3.61-.56-5.42-.26-2.45-.52-4.9-.79-7.35-.01-.15-.06-.3-.08-.45-.04-.31 0-.36.34-.4 1.23-.15 2.46-.3 3.69-.46.37-.05.74-.12 1.17-.2m-54.85 29.3c-1.83.31-3.64.62-5.5.93-.04-.46-.09-.89-.13-1.32l-.45-4.19-.36-3.43-.48-4.55-.66-6.08c-.04-.31 0-.34.3-.38 1.57-.21 3.13-.43 4.7-.64.04 0 .09 0 .19.01.8 6.53 1.59 13.07 2.4 19.64m54.42-34.45c0 1.01-.24 1.66-.71 2.25-.87 1.08-2.4 1.32-3.6.47-1.53-1.08-1.89-3.26-.75-4.67.96-1.18 2.53-1.37 3.74-.42.87.68 1.29 1.58 1.31 2.38M89.05 23.52c.01.5-.18 1.08-.54 1.61-.91 1.31-2.56 1.57-3.85.6-1.33-.99-1.71-2.89-.87-4.29.92-1.53 2.88-1.79 4.21-.54.72.67 1.08 1.5 1.06 2.62m22.97 18.84c-.17-2-.41-4-.64-5.99-.14-1.26-.3-2.52-.47-3.78-.21-1.56-.44-3.11-.66-4.67-.13-.91-.27-1.82-.41-2.74-.03-.23-.05-.47-.08-.77-1.52.25-2.99.49-4.48.73.05.53.1 1.01.13 1.49.02.49.2.96.15 1.45-.04.01-.09.03-.13.04-.08-.09-.18-.16-.24-.26-.47-.74-1.15-1.24-1.95-1.59-2.32-1-4.5-.65-6.56.68-1.13.74-1.84 1.8-2.33 3.01-.5 1.22-.77 2.49-.88 3.79-.19 2.22 0 4.41.72 6.54.61 1.8 1.63 3.33 3.2 4.5 2.14 1.59 4.43 1.6 6.63.19 1.02-.66 1.86-1.48 2.49-2.5.05-.08.16-.12.24-.17.06.08.15.16.17.24.05.27.07.54.11.81.21 1.28 0 2.5-.63 3.65-.64 1.17-1.65 1.92-2.99 2.24-1.3.3-2.59.23-3.87-.09-.57-.14-1.12-.35-1.74-.55v.41c.01.28.04.57.04.86q-.015 1.905-.06 3.81c0 .21.07.31.29.33.3.02.59.06.89.08 1.71.14 3.42.17 5.13.03 1.63-.13 3.15-.61 4.43-1.6 2.23-1.72 3.37-4.03 3.61-6.73.1-1.14.02-2.29-.08-3.44m-6.54-3.87c-.56 1.72-2.22 2.42-3.93 1.65-1.05-.47-1.69-1.31-2.01-2.34-.44-1.42-.56-2.87-.23-4.33.13-.57.34-1.1.68-1.58.64-.9 1.5-1.43 2.66-1.3 1.17.14 1.93.83 2.34 1.86.53 1.32.73 2.71.75 3.86 0 .92-.06 1.56-.26 2.19m-23.19.77c-.26-1.36-.44-2.74-.89-4.07-.55-1.6-1.43-2.95-2.94-3.87-1.34-.82-2.8-1.21-4.39-1.07-2.46.22-4.2 1.76-4.54 3.92-.02.09-.07.18-.11.26h-.11c-.23-.92-.24-1.89-.5-2.84-1.64.38-3.21.75-4.78 1.11-.14.03-.21.12-.2.26 0 .09.02.18.03.27.28 2.16.56 4.32.83 6.48.33 2.73.64 5.46.97 8.2.24 1.98.49 3.96.73 5.94l.69 5.9c.01.11.07.21.09.29 1.45-.24 2.84-.47 4.22-.7.21-.04.47-.03.63-.15.22-.17 0-.42-.02-.64-.04-.68-.11-1.35-.18-2.03-.12-1.17-.23-2.34-.36-3.51-.14-1.26-.3-2.52-.44-3.78-.01-.1.02-.2.04-.37.2.1.34.18.49.26.79.41 1.55.86 2.36 1.22 1.45.63 2.94.73 4.41.04 1.22-.57 2.06-1.52 2.7-2.64 1.07-1.89 1.46-3.94 1.53-6.06.02-.82-.11-1.63-.26-2.43m-5.84 4.79c-.09.22-.2.44-.32.65-.49.85-1.26 1.23-2.25 1.23-1.67.01-2.92-.81-3.48-2.41-.73-2.05-.6-4.1.3-6.09.41-.9 1.17-1.41 2.12-1.65.99-.25 1.82.1 2.48.83.66.74 1 1.63 1.26 2.55.21.76.28 1.54.29 2.33.02.87-.09 1.72-.4 2.53m90.89-9.24c-.11-.7-.23-1.4-.34-2.1-.2-1.39-.39-2.78-.59-4.17-.21-1.41-.43-2.81-.64-4.21-.18-1.16-.35-2.33-.52-3.49-.16-1.02-.63-1.9-1.37-2.63-1.93-1.9-4.29-2.55-6.98-2.09-1.18.2-2.28.67-3.32 1.24-.67.37-1.3.8-1.86 1.31-.14.13-.24.25-.22.47.11 1.33.2 2.65.29 3.98 0 .11.03.23.04.34h.13c.09-.06.17-.13.26-.19 1.09-.87 2.26-1.63 3.56-2.2.67-.3 1.37-.52 2.12-.54 1.63-.05 2.45 1.05 2.73 2.27.02.07.01.15 0 .22-.03.37-.22.59-.59.67-.11.02-.22.02-.33.03-1.73.13-3.38.52-4.91 1.33-1.33.7-2.42 1.64-3.04 2.99-.86 1.88-.98 3.8-.28 5.74.44 1.21 1.23 2.17 2.43 2.77.71.35 1.48.51 2.26.56 1.26.09 2.49-.05 3.58-.71 1.19-.71 2.14-1.64 2.45-3.02.02-.08.1-.15.15-.22.12.13.15.24.17.35.11.73.21 1.46.32 2.19.07.46.08.45.53.35.38-.09.77-.16 1.15-.23.94-.17 1.87-.33 2.88-.51-.03-.19-.04-.34-.07-.49m-6.05-4.95c-.3 1.13-.92 2.05-2 2.63-1.02.55-2.22.22-2.8-.77-.7-1.18-.42-2.67.82-3.43.59-.36 1.24-.65 1.89-.91.72-.28 1.47-.5 2.21-.74.04.08.08.12.08.16-.02 1.02.08 2.06-.19 3.06M130.5 41.16c-.18-1.04-.35-2.09-.5-3.13-.24-1.6-.46-3.2-.69-4.8-.29-1.99-.57-3.98-.87-5.97-.13-.85-.42-1.64-.94-2.35-.77-1.04-1.79-1.78-3.01-2.25-1.31-.51-2.65-.71-4.06-.5-.77.11-1.5.34-2.21.61-1.24.47-2.37 1.11-3.36 1.98-.2.18-.25.35-.23.6.09.98.16 1.96.23 2.94.03.42.04.84.06 1.28.09 0 .12.02.15 0 .05-.03.11-.06.15-.1.86-.74 1.81-1.36 2.82-1.89.81-.43 1.65-.8 2.59-.93 1.59-.21 2.97.8 3.1 2.28.05.58-.2.84-.8.88-1.81.12-3.53.53-5.12 1.4-1.2.65-2.21 1.5-2.82 2.72-.97 1.98-1.12 4.01-.33 6.07.49 1.27 1.36 2.25 2.68 2.78.85.34 1.75.45 2.67.44 1.28-.02 2.46-.31 3.46-1.1.88-.7 1.67-1.48 1.84-2.64.01-.07.1-.12.22-.26.06.2.12.32.14.44.08.54.14 1.08.22 1.62.04.31.11.61.17.93.11 0 .18.01.23 0 1.33-.24 2.65-.48 3.98-.71.22-.04.28-.12.24-.34m-5.89-7.28c-.03.94-.04 1.91-.45 2.82-.33.72-.81 1.32-1.49 1.77-1.55 1.01-3.01.05-3.34-1.32-.28-1.17.15-2.14 1.19-2.81.7-.45 1.47-.74 2.25-1.01.5-.18 1.01-.34 1.51-.51.23-.07.32-.02.33.22.02.27 0 .54 0 .84m41.39-25.67c-.13-1.08-.97-1.99-2.02-2.2-1.13-.23-2.26.24-2.82 1.2-.51.88-.54 1.8-.06 2.69.51.93 1.36 1.39 2.43 1.34 1.45-.07 2.48-1.17 2.48-2.66 0-.07 0-.22-.02-.37m-2.05 2.4c-.86.22-1.73-.11-2.2-.84-.58-.89-.39-2.11.42-2.81.67-.57 1.73-.59 2.42-.03a2.1 2.1 0 0 1 .79 1.65c0 1-.6 1.82-1.44 2.03" class="cls-2"/><path d="M163.02 8.95v.95h-.55V7.33c.51-.1 1-.14 1.5-.03.29.06.49.25.55.55.07.37-.08.62-.5.76.46.34.45.8.57 1.23-.52.17-.58.15-.72-.35-.15-.53-.22-.58-.85-.55m.03-.47c.22-.02.42-.02.61-.07.16-.04.27-.16.25-.34-.02-.16-.11-.3-.28-.32-.18-.02-.36 0-.58 0z" class="cls-2"/><path d="M0 0h180.93v78.05H0z" style="fill:none"/></g></svg>